<svg width="23" height="21" viewBox="0 0 23 21" fill="none" xmlns="http://www.w3.org/2000/svg">
<rect width="22.3957" height="20.0791" rx="10.0396" transform="matrix(1 0 0 -1 0.489258 20.8014)" fill="white" fill-opacity="0.15"/>
<path fill-rule="evenodd" clip-rule="evenodd" d="M7.91379 8.91006C7.96604 8.96245 8.02811 9.00401 8.09645 9.03236C8.16479 9.06072 8.23805 9.07532 8.31204 9.07532C8.38603 9.07532 8.45929 9.06072 8.52763 9.03236C8.59597 9.00401 8.65804 8.96245 8.71029 8.91006L11.687 5.93219L14.6638 8.91006C14.7694 9.01568 14.9127 9.07502 15.062 9.07502C15.2114 9.07502 15.3547 9.01568 15.4603 8.91006C15.5659 8.80444 15.6252 8.66118 15.6252 8.51181C15.6252 8.36244 15.5659 8.21918 15.4603 8.11356L12.0853 4.73856C12.033 4.68618 11.971 4.64462 11.9026 4.61626C11.8343 4.5879 11.761 4.57331 11.687 4.57331C11.6131 4.57331 11.5398 4.5879 11.4715 4.61626C11.4031 4.64462 11.341 4.68618 11.2888 4.73856L7.91379 8.11356C7.86141 8.16581 7.81985 8.22789 7.79149 8.29622C7.76313 8.36456 7.74854 8.43782 7.74854 8.51181C7.74854 8.5858 7.76313 8.65906 7.79149 8.7274C7.81985 8.79574 7.86141 8.85781 7.91379 8.91006V8.91006Z" fill="white"/>
<path fill-rule="evenodd" clip-rule="evenodd" d="M11.687 16.9493C11.8362 16.9493 11.9793 16.8901 12.0848 16.7846C12.1902 16.6791 12.2495 16.536 12.2495 16.3868V6.26184C12.2495 6.11266 12.1902 5.96958 12.0848 5.86409C11.9793 5.7586 11.8362 5.69934 11.687 5.69934C11.5378 5.69934 11.3948 5.7586 11.2893 5.86409C11.1838 5.96958 11.1245 6.11266 11.1245 6.26184V16.3868C11.1245 16.536 11.1838 16.6791 11.2893 16.7846C11.3948 16.8901 11.5378 16.9493 11.687 16.9493V16.9493Z" fill="white"/>
</svg>
