<svg width="24" height="21" viewBox="0 0 24 21" fill="none" xmlns="http://www.w3.org/2000/svg">
<rect x="0.796875" y="0.72229" width="22.3957" height="20.0791" rx="10.0396" fill="white" fill-opacity="0.15"/>
<path fill-rule="evenodd" clip-rule="evenodd" d="M8.22141 12.6136C8.27366 12.5612 8.33573 12.5197 8.40407 12.4913C8.47241 12.463 8.54567 12.4484 8.61966 12.4484C8.69365 12.4484 8.76691 12.463 8.83525 12.4913C8.90358 12.5197 8.96566 12.5612 9.01791 12.6136L11.9947 15.5915L14.9714 12.6136C15.077 12.508 15.2203 12.4487 15.3697 12.4487C15.519 12.4487 15.6623 12.508 15.7679 12.6136C15.8735 12.7192 15.9329 12.8625 15.9329 13.0119C15.9329 13.1612 15.8735 13.3045 15.7679 13.4101L12.3929 16.7851C12.3407 16.8375 12.2786 16.8791 12.2102 16.9074C12.1419 16.9358 12.0686 16.9504 11.9947 16.9504C11.9207 16.9504 11.8474 16.9358 11.7791 16.9074C11.7107 16.8791 11.6487 16.8375 11.5964 16.7851L8.22141 13.4101C8.16902 13.3579 8.12746 13.2958 8.09911 13.2275C8.07075 13.1591 8.05615 13.0859 8.05615 13.0119C8.05615 12.9379 8.07075 12.8646 8.09911 12.7963C8.12746 12.7279 8.16902 12.6659 8.22141 12.6136V12.6136Z" fill="white"/>
<path fill-rule="evenodd" clip-rule="evenodd" d="M11.9946 4.57434C12.1438 4.57434 12.2869 4.6336 12.3924 4.73909C12.4979 4.84458 12.5571 4.98766 12.5571 5.13684V15.2618C12.5571 15.411 12.4979 15.5541 12.3924 15.6596C12.2869 15.7651 12.1438 15.8243 11.9946 15.8243C11.8454 15.8243 11.7024 15.7651 11.5969 15.6596C11.4914 15.5541 11.4321 15.411 11.4321 15.2618V5.13684C11.4321 4.98766 11.4914 4.84458 11.5969 4.73909C11.7024 4.6336 11.8454 4.57434 11.9946 4.57434V4.57434Z" fill="white"/>
</svg>
