<svg width="29" height="19" viewBox="0 0 29 19" fill="none" xmlns="http://www.w3.org/2000/svg">
<path d="M1.07514 2.66351H27.9105C28.5126 2.66351 29 2.08142 29 1.34058C29 0.599731 28.5126 0 27.9105 0H1.07514C0.47306 0 0 0.599731 0 1.34058C0 2.08142 0.47306 2.66351 1.07514 2.66351ZM1.07514 10.3542H27.9105C28.5126 10.3542 29 9.77209 29 9.03125C29 8.27277 28.5126 7.67303 27.9105 7.67303H1.07514C0.47306 7.67303 0 8.27277 0 9.03125C0 9.77209 0.47306 10.3542 1.07514 10.3542ZM1.07514 18.0625H27.9105C28.5126 18.0625 29 17.4628 29 16.7043C29 15.9634 28.5126 15.3813 27.9105 15.3813H1.07514C0.47306 15.3813 0 15.9634 0 16.7043C0 17.4628 0.47306 18.0625 1.07514 18.0625Z" fill="#EBEBEB"/>
</svg>
